<svg
   version="1.1"
   viewBox="-2443.5317179414415 -1064.960009765625 5704.972024795689 2466.04807434082"
   id="svg40"
   xmlns="http://www.w3.org/2000/svg"
   xmlnsSvg="http://www.w3.org/2000/svg">
  <desc
     id="desc2">
    Created with Snap
  </desc>
  <defs
     id="defs4" />
  <g
     id="g38">
    <rect
       x="-2443.5317179414415"
       y="-1064.960009765625"
       width="5704.972024795689"
       height="2466.04807434082"
       fill="#ffffff"
       style=""
       fill-opacity="0"
       id="rect6" />
    <g
       transform="matrix(22.627632,0,0,25.34374,-2500.2788,-1097.8534)"
       id="g24">
      <g
         id="g18">
        <path
           d="m 78.4,66.5 c -5.5,4.8 -9.9,15.2 -9.9,15.2 0,0 -6.9,-11.4 -12.9,-15.3 C 46.1,60.3 42,60.2 42,60.2 V 65 c 0,0 7.8,1.2 11.7,4.6 8.2,7.1 14.8,18.5 14.8,18.5 0,0 5.9,-13.1 11.6,-17.6 C 88.1,64.3 95,65 95,65 v -4.8 c 0,-0.1 -9.9,0.5 -16.6,6.3 z"
           fill="#fff"
           id="path8" />
        <path
           d="m 42,80 c -6.4,-3.6 -17.8,-4.3 -17.8,-4.3 0,0 8.7,-10.1 10.5,-17 C 37.5,47.9 36.2,44 36.2,44 l -4.6,1.6 c 0,0 1.3,7.7 -0.6,12.4 -4.1,9.9 -13,19.8 -13,19.8 0,0 14.6,1.3 20.7,5.1 8.6,5.4 10.2,12 10.2,12 l 4.6,-1.6 C 53.5,93.4 49.7,84.4 42,80 Z"
           fill="#fff"
           id="path10" />
        <path
           d="m 35.3,36.8 c 11.3,-0.9 14.6,-3.4 14.6,-3.4 l -3,-3.8 c 0,0 -6.9,3.7 -12.1,3.4 -10.9,-0.6 -23.3,-5.6 -23.3,-5.6 0,0 3.5,14 1.8,20.9 C 10.9,58.2 5,61.8 5,61.8 l 3,3.8 c 0,0 7.5,-6.5 9.1,-15.1 1.3,-7.1 -1.7,-18 -1.7,-18 0,0 12.6,4.9 19.9,4.3 z"
           fill="#fff"
           id="path12" />
        <path
           d="m 37.4,17.8 c 7.3,-1.1 16.7,-7.4 16.7,-7.4 0,0 -0.6,13.2 2.4,19.8 4.6,10.2 8,12.5 8,12.5 l 2.7,-4 c 0,0 -5.9,-5.2 -7.3,-10.2 C 56.9,18.2 57.7,5 57.7,5 57.7,5 45.4,12.8 38.2,13.5 28,14.5 22.6,10.2 22.6,10.2 l -2.7,4.1 c 0,-0.1 8.7,4.8 17.5,3.5 z"
           fill="#fff"
           id="path14" />
        <path
           d="m 65,60.5 c 0,0 3.1,-7.2 7.4,-10.1 9,-6.1 21.9,-9.7 21.9,-9.7 0,0 -11.5,-8.9 -14.5,-15.4 C 75.6,16.2 77.9,9.7 77.9,9.7 L 73.1,8.5 c 0,0 -1.9,9.6 2.2,17.4 3.4,6.4 12.5,13.2 12.5,13.2 0,0 -12.8,3.8 -18.2,8.7 -8.3,7.6 -9.4,11.5 -9.4,11.5 z"
           fill="#fff"
           id="path16" />
      </g>
      <desc
         id="desc20">
        Created with Snap
      </desc>
      <defs
         id="defs22" />
    </g>
    <g
       id="g30"
       transform="matrix(1.0985994,0,0,1.2304698,-43.611784,489.99383)">
      <g
         transform="scale(1.024,-1.024)"
         id="g28">
        <path
           d="M 227,0 H 93 V 394 H 24 v 102 h 69 v 32 q 0,98 47,155 47,57 128,57 64,0 129,-31 L 370,608 q -15,8 -36,13 -20,6 -37,6 -70,0 -70,-94 V 496 H 355 V 394 H 227 Z m 447,-10 q -63,0 -114,21 -51,22 -87,59 -36,37 -56,86 -19,49 -19,103 0,56 19,105 19,50 55,87 36,38 87,60 52,22 116,22 64,0 114,-22 51,-22 86,-59 36,-37 54,-86 19,-49 19,-102 0,-13 -1,-25 0,-12 -2,-20 H 540 q 3,-31 15,-55 12,-24 31,-41 19,-17 43,-26 24,-9 50,-9 40,0 75,19 36,20 49,52 L 918,127 Q 889,67 825,28 762,-10 674,-10 Z M 538,306 h 272 q -5,59 -44,94 -38,36 -93,36 -27,0 -51,-10 -23,-9 -41,-26 -18,-17 -30,-41 -11,-24 -13,-53 z m 503,-524 v 116 q 17,-5 33,-8 16,-2 27,-2 13,0 24,5 11,5 20,17 9,13 18,35 9,22 19,55 L 975,524 h 138 l 142,-408 126,408 h 126 l -220,-628 q -19,-55 -65,-90 -46,-35 -114,-35 -16,0 -33,2 -16,3 -34,9 z M 1866,0 h -145 l -193,524 h 138 l 133,-415 134,415 h 126 z m 397,0 h -134 v 524 h 134 z m 0,597 h -134 v 133 h 134 z M 2885,0 h -143 l -152,227 -72,-71 V 0 h -134 v 730 h 134 V 287 l 210,236 h 143 L 2676,301 Z"
           fill="#fff"
           id="path26" />
      </g>
    </g>
  </g>
</svg>
