<svg xmlns="http://www.w3.org/2000/svg" version="1.1" viewBox="-2443.5317179414415 -1064.960009765625 5704.972024795689 2466.04807434082">
  <desc>
    Created with Snap
  </desc>
  <defs/>
  <g>
    <rect x="-2443.5317179414415" y="-1064.960009765625" width="5704.972024795689" height="2466.04807434082" fill="#ffffff" style="" fill-opacity="0"/>
    <g transform="matrix(20.5968,0,0,20.5968,-2239.3155,-860.7438)">
      <g>
        <path d="M78.4,66.5c-5.5,4.8-9.9,15.2-9.9,15.2s-6.9-11.4-12.9-15.3c-9.5-6.1-13.6-6.2-13.6-6.2V65c0,0,7.8,1.2,11.7,4.6   c8.2,7.1,14.8,18.5,14.8,18.5S74.4,75,80.1,70.5C88.1,64.3,95,65,95,65v-4.8C95,60.1,85.1,60.7,78.4,66.5z" fill="#073eaa" style=""/>
        <path d="M42,80c-6.4-3.6-17.8-4.3-17.8-4.3s8.7-10.1,10.5-17C37.5,47.9,36.2,44,36.2,44l-4.6,1.6c0,0,1.3,7.7-0.6,12.4   c-4.1,9.9-13,19.8-13,19.8s14.6,1.3,20.7,5.1c8.6,5.4,10.2,12,10.2,12l4.6-1.6C53.5,93.4,49.7,84.4,42,80z" fill="#073eaa" style=""/>
        <path d="M35.3,36.8c11.3-0.9,14.6-3.4,14.6-3.4l-3-3.8c0,0-6.9,3.7-12.1,3.4c-10.9-0.6-23.3-5.6-23.3-5.6s3.5,14,1.8,20.9   C10.9,58.2,5,61.8,5,61.8l3,3.8c0,0,7.5-6.5,9.1-15.1c1.3-7.1-1.7-18-1.7-18S28,37.4,35.3,36.8z" fill="#073eaa" style=""/>
        <path d="M37.4,17.8c7.3-1.1,16.7-7.4,16.7-7.4s-0.6,13.2,2.4,19.8c4.6,10.2,8,12.5,8,12.5l2.7-4c0,0-5.9-5.2-7.3-10.2   C56.9,18.2,57.7,5,57.7,5s-12.3,7.8-19.5,8.5c-10.2,1-15.6-3.3-15.6-3.3l-2.7,4.1C19.9,14.2,28.6,19.1,37.4,17.8z" fill="#073eaa" style=""/>
        <path d="M65,60.5c0,0,3.1-7.2,7.4-10.1c9-6.1,21.9-9.7,21.9-9.7s-11.5-8.9-14.5-15.4c-4.2-9.1-1.9-15.6-1.9-15.6l-4.8-1.2   c0,0-1.9,9.6,2.2,17.4c3.4,6.4,12.5,13.2,12.5,13.2S75,42.9,69.6,47.8c-8.3,7.6-9.4,11.5-9.4,11.5L65,60.5z" fill="#073eaa" style=""/>
      </g>
      <desc>
        Created with Snap
      </desc>
      <defs/>
    </g>
    <g>
      <g transform="matrix(1.024,0,0,-1.024,0,0)">
        <path d="M227 0L93 0L93 394L24 394L24 496L93 496L93 528Q93 626 140 683Q187 740 268 740Q332 740 397 709L370 608Q355 616 334 621Q314 627 297 627Q227 627 227 533L227 496L355 496L355 394L227 394L227 0ZM674 -10Q611 -10 560 11Q509 33 473 70Q437 107 417 156Q398 205 398 259Q398 315 417 364Q436 414 472 451Q508 489 559 511Q611 533 675 533Q739 533 789 511Q840 489 875 452Q911 415 929 366Q948 317 948 264Q948 251 947 239Q947 227 945 219L540 219Q543 188 555 164Q567 140 586 123Q605 106 629 97Q653 88 679 88Q719 88 754 107Q790 127 803 159L918 127Q889 67 825 28Q762 -10 674 -10ZM538 306L810 306Q805 365 766 400Q728 436 673 436Q646 436 622 426Q599 417 581 400Q563 383 551 359Q540 335 538 306ZM1041 -218L1041 -102Q1058 -107 1074 -110Q1090 -112 1101 -112Q1114 -112 1125 -107Q1136 -102 1145 -90Q1154 -77 1163 -55Q1172 -33 1182 0L975 524L1113 524L1255 116L1381 524L1507 524L1287 -104Q1268 -159 1222 -194Q1176 -229 1108 -229Q1092 -229 1075 -227Q1059 -224 1041 -218ZM1866 0L1721 0L1528 524L1666 524L1799 109L1933 524L2059 524L1866 0ZM2263 0L2129 0L2129 524L2263 524L2263 0ZM2263 597L2129 597L2129 730L2263 730L2263 597ZM2885 0L2742 0L2590 227L2518 156L2518 0L2384 0L2384 730L2518 730L2518 287L2728 523L2871 523L2676 301L2885 0Z" fill="#073eaa" style=""/>
      </g>
    </g>
    <g transform="matrix(0.75,0,0,0.75,-5.376,1086.9761)">
      <g transform="matrix(1.024,0,0,-1.024,0,0)">
        <path d="M291 59Q323 59 347 66Q371 73 394 84L413 18Q359 -9 284 -9Q233 -9 188 6Q144 21 110 51Q77 82 58 127Q39 173 39 234Q39 290 57 335Q75 380 107 411Q139 443 184 460Q229 477 283 477Q314 477 343 472Q373 468 411 451L391 384Q345 410 292 410Q219 410 174 364Q129 319 129 237Q129 186 143 152Q157 118 180 97Q203 77 232 68Q261 59 291 59ZM941 240Q941 181 923 134Q905 88 873 56Q842 24 800 7Q758 -9 709 -9Q660 -9 618 6Q577 22 546 52Q516 83 498 127Q481 172 481 230Q481 289 499 335Q517 381 548 412Q580 444 622 460Q664 477 713 477Q762 477 803 462Q845 447 875 417Q906 387 923 342Q941 298 941 240ZM849 235Q849 282 837 315Q825 348 805 369Q786 390 761 399Q736 409 710 409Q684 409 659 401Q634 393 615 373Q596 353 584 319Q573 286 573 235Q573 188 585 154Q597 121 616 100Q636 79 661 69Q686 59 712 59Q738 59 763 67Q788 76 807 96Q826 117 837 150Q849 184 849 235ZM1360 431L1360 710L1448 710L1448 0L1374 0L1363 52L1360 52Q1329 20 1297 5Q1266 -9 1218 -9Q1180 -9 1144 6Q1109 21 1081 51Q1053 81 1036 126Q1019 172 1019 234Q1019 289 1033 334Q1048 379 1075 411Q1102 443 1141 460Q1180 477 1230 477Q1267 477 1300 465Q1334 454 1360 431ZM1360 124L1360 357Q1313 410 1249 410Q1222 410 1196 400Q1171 391 1151 370Q1132 349 1120 316Q1108 283 1108 237Q1108 189 1119 155Q1130 122 1148 100Q1167 79 1190 69Q1214 59 1238 59Q1313 59 1360 124ZM1984 271L1984 225L1647 225L1647 221Q1647 143 1689 101Q1732 59 1805 59Q1843 59 1872 65Q1902 71 1937 85L1955 20Q1926 7 1886 -1Q1847 -9 1802 -9Q1751 -9 1706 5Q1662 19 1628 48Q1594 78 1574 124Q1555 170 1555 234Q1555 289 1571 334Q1588 379 1618 410Q1648 442 1690 459Q1733 477 1786 477Q1831 477 1867 462Q1904 447 1930 420Q1956 393 1970 355Q1984 317 1984 271ZM1649 286L1893 288Q1893 314 1886 336Q1880 359 1866 376Q1853 393 1832 403Q1811 413 1781 413Q1726 413 1691 378Q1657 343 1649 286Z" fill="#073eaa" style=""/>
      </g>
    </g>
  </g>
</svg>
