<svg xmlns="http://www.w3.org/2000/svg" xmlns:xlink="http://www.w3.org/1999/xlink" zoomAndPan="magnify" preserveAspectRatio="xMidYMid meet" version="1.2" viewBox="57.88 152.11 263.92 73.94"><defs><clipPath id="19f5e517f7"><path d="M 57.882812 210.816406 L 182.804688 210.816406 L 182.804688 221.148438 L 57.882812 221.148438 Z M 57.882812 210.816406 "/></clipPath><clipPath id="dff536cbfe"><path d="M 194.894531 152.109375 L 321.820312 152.109375 L 321.820312 162.4375 L 194.894531 162.4375 Z M 194.894531 152.109375 "/></clipPath></defs><g id="723385a52f"><g clip-rule="nonzero" clip-path="url(#19f5e517f7)"><path style=" stroke:none;fill-rule:nonzero;fill:#ffffff;fill-opacity:1;" d="M 57.882812 210.816406 L 182.8125 210.816406 L 182.8125 221.148438 L 57.882812 221.148438 Z M 57.882812 210.816406 "/></g><g clip-rule="nonzero" clip-path="url(#dff536cbfe)"><path style=" stroke:none;fill-rule:nonzero;fill:#ffffff;fill-opacity:1;" d="M 194.894531 152.109375 L 321.800781 152.109375 L 321.800781 162.4375 L 194.894531 162.4375 Z M 194.894531 152.109375 "/></g><g style="fill:#ffffff;fill-opacity:1;"><g transform="translate(58.694145, 198.266985)"><path style="stroke:none" d="M 11.21875 0 L 5.8125 0 L 5.8125 -42.828125 L 29.75 -42.828125 L 29.75 -38.09375 L 11.21875 -38.09375 L 11.21875 -22.90625 L 28.609375 -22.90625 L 28.609375 -18.171875 L 11.21875 -18.171875 Z M 11.21875 0 "/></g></g><g style="fill:#ffffff;fill-opacity:1;"><g transform="translate(102.240147, 198.266985)"><path style="stroke:none" d="M 29.75 0 L 5.8125 0 L 5.8125 -42.828125 L 29.75 -42.828125 L 29.75 -38.09375 L 11.21875 -38.09375 L 11.21875 -24.71875 L 28.671875 -24.71875 L 28.671875 -20.03125 L 11.21875 -20.03125 L 11.21875 -4.734375 L 29.75 -4.734375 Z M 29.75 0 "/></g></g><g style="fill:#ffffff;fill-opacity:1;"><g transform="translate(148.005273, 198.266985)"><path style="stroke:none" d="M 16.96875 -21.78125 L 28.125 -42.828125 L 33.953125 -42.828125 L 19.671875 -16.609375 L 19.671875 0 L 14.28125 0 L 14.28125 -16.375 L 0 -42.828125 L 5.875 -42.828125 Z M 16.96875 -21.78125 "/></g></g><g style="fill:#ffffff;fill-opacity:1;"><g transform="translate(199.955192, 226.050439)"><path style="stroke:none" d="M 35.984375 -42.828125 L 20.6875 0 L 15.296875 0 L 0 -42.828125 L 5.640625 -42.828125 L 15.296875 -15.359375 C 15.929688 -13.597656 16.457031 -11.945312 16.875 -10.40625 C 17.300781 -8.863281 17.675781 -7.394531 18 -6 C 18.28125 -7.394531 18.640625 -8.875 19.078125 -10.4375 C 19.515625 -12 20.050781 -13.675781 20.6875 -15.46875 L 30.296875 -42.828125 Z M 35.984375 -42.828125 "/></g></g><g style="fill:#ffffff;fill-opacity:1;"><g transform="translate(248.359291, 226.050439)"><path style="stroke:none" d="M 17.875 0 L 2.40625 0 L 2.40625 -3.125 L 7.4375 -4.265625 L 7.4375 -38.515625 L 2.40625 -39.703125 L 2.40625 -42.828125 L 17.875 -42.828125 L 17.875 -39.703125 L 12.84375 -38.515625 L 12.84375 -4.265625 L 17.875 -3.125 Z M 17.875 0 "/></g></g><g style="fill:#ffffff;fill-opacity:1;"><g transform="translate(281.109522, 226.050439)"><path style="stroke:none" d="M 37.125 0 L 30.765625 0 L 15.59375 -20.453125 L 11.21875 -16.609375 L 11.21875 0 L 5.8125 0 L 5.8125 -42.828125 L 11.21875 -42.828125 L 11.21875 -21.71875 C 12.414062 -23.070312 13.632812 -24.425781 14.875 -25.78125 C 16.113281 -27.144531 17.351562 -28.507812 18.59375 -29.875 L 30.171875 -42.828125 L 36.46875 -42.828125 L 19.5 -24.171875 Z M 37.125 0 "/></g></g></g></svg>